<?xml version="1.0" standalone="no"?>
<!DOCTYPE svg PUBLIC "-//W3C//DTD SVG 20010904//EN"
 "http://www.w3.org/TR/2001/REC-SVG-20010904/DTD/svg10.dtd">
<svg version="1.0" xmlns="http://www.w3.org/2000/svg"
 width="2057.000000pt" height="2057.000000pt" viewBox="0 0 2057.000000 2057.000000"
 preserveAspectRatio="xMidYMid meet">
<metadata>
Created by potrace 1.14, written by Peter Selinger 2001-2017
</metadata>
<g transform="translate(0.000000,2057.000000) scale(0.100000,-0.100000)"
fill="#000000" stroke="none">
<path d="M5735 20551 c-2 -9 -7 -33 -11 -55 -3 -21 -8 -48 -10 -60 -3 -11 -7
-37 -9 -56 -3 -19 -7 -46 -10 -60 -13 -63 -15 -71 -36 -195 -6 -33 -12 -71
-15 -85 -2 -14 -7 -41 -10 -60 -3 -19 -7 -42 -9 -50 -2 -8 -7 -31 -10 -50 -3
-19 -10 -62 -16 -95 -6 -33 -13 -71 -15 -85 -3 -14 -9 -47 -14 -75 -5 -27 -12
-66 -15 -85 -18 -108 -48 -280 -71 -404 -14 -77 -27 -154 -29 -170 -3 -15 -7
-35 -9 -45 -3 -9 -8 -38 -12 -66 -3 -27 -8 -52 -9 -55 -2 -3 -6 -26 -10 -50
-3 -25 -14 -90 -25 -145 -10 -55 -21 -116 -24 -135 -5 -32 -49 -281 -62 -355
-3 -16 -16 -91 -29 -165 -13 -74 -31 -175 -40 -225 -9 -49 -18 -100 -20 -113
-2 -12 -9 -49 -15 -82 -5 -33 -12 -70 -14 -82 -2 -13 -7 -41 -11 -63 -4 -22
-13 -71 -20 -110 -8 -38 -16 -88 -20 -110 -3 -22 -12 -76 -20 -120 -8 -44 -17
-96 -21 -115 -8 -52 -22 -131 -29 -165 -6 -30 -19 -108 -30 -175 -6 -35 -40
-229 -51 -285 -8 -42 -84 -474 -90 -510 -4 -29 -22 -129 -83 -470 -17 -93 -33
-183 -35 -200 -13 -81 -17 -102 -21 -125 -12 -59 -16 -78 -25 -135 -14 -82
-20 -116 -25 -145 -3 -14 -7 -36 -10 -50 -6 -40 -25 -143 -29 -166 -2 -12 -7
-39 -10 -60 -7 -41 -23 -131 -31 -174 -6 -31 -23 -125 -30 -167 -7 -42 -14
-82 -19 -110 -3 -11 -8 -43 -12 -70 -5 -26 -9 -50 -9 -53 -1 -3 -5 -25 -9 -50
-5 -25 -10 -54 -12 -65 -2 -11 -15 -85 -29 -165 -14 -80 -27 -157 -30 -170 -3
-14 -10 -52 -15 -85 -14 -82 -19 -112 -30 -170 -11 -58 -16 -88 -30 -170 -9
-57 -13 -76 -25 -135 -2 -14 -7 -41 -10 -60 -11 -72 -26 -157 -40 -225 -8 -38
-16 -88 -19 -110 -2 -22 -7 -51 -10 -65 -7 -29 -15 -75 -21 -110 -2 -14 -10
-63 -19 -110 -9 -47 -18 -102 -22 -124 -3 -21 -8 -48 -10 -60 -2 -11 -7 -37
-10 -56 -2 -19 -8 -48 -11 -65 -10 -46 -10 -47 -17 -90 -14 -83 -47 -271 -51
-285 -2 -8 -6 -33 -10 -55 -3 -22 -12 -76 -20 -120 -8 -44 -17 -96 -20 -115
-3 -19 -8 -42 -10 -50 -2 -8 -7 -33 -10 -55 -6 -43 -9 -60 -25 -140 -5 -27
-12 -66 -14 -85 -4 -30 -42 -248 -60 -345 -6 -30 -21 -115 -31 -170 -4 -26
-17 -98 -31 -175 -2 -14 -13 -79 -25 -145 -11 -66 -26 -151 -34 -190 -7 -38
-16 -88 -20 -110 -3 -23 -8 -52 -10 -65 -8 -41 -65 -367 -65 -373 0 -2 1916
-5 4258 -6 2341 0 4295 -2 4342 -5 139 -7 218 -16 345 -41 348 -67 583 -208
717 -431 51 -85 103 -228 113 -309 4 -27 8 -61 11 -75 10 -58 2 -358 -11 -416
-2 -12 -7 -39 -10 -60 -3 -21 -13 -70 -21 -109 -8 -38 -16 -79 -18 -90 -11
-59 -75 -233 -118 -323 -120 -247 -297 -428 -538 -548 -153 -76 -341 -136
-500 -159 -19 -3 -44 -7 -55 -10 -19 -4 -38 -6 -155 -19 -25 -3 -92 -8 -150
-12 -58 -3 -106 -7 -107 -8 -1 -1 -5 -20 -7 -41 -3 -22 -10 -65 -16 -95 -6
-30 -13 -71 -16 -90 -3 -19 -9 -57 -15 -85 -5 -27 -11 -68 -14 -90 -3 -22 -9
-60 -15 -85 -5 -25 -11 -64 -14 -87 -3 -22 -8 -52 -10 -65 -3 -12 -8 -34 -10
-48 -2 -14 -7 -41 -10 -60 -3 -19 -8 -48 -11 -65 -3 -16 -21 -124 -40 -240
-20 -115 -38 -221 -40 -235 -2 -14 -14 -79 -25 -145 -12 -66 -23 -136 -25
-155 -3 -19 -8 -48 -12 -65 -4 -16 -7 -32 -8 -35 -1 -3 -5 -32 -9 -65 -4 -32
-10 -68 -12 -80 -5 -23 -7 -35 -35 -200 -11 -66 -23 -131 -25 -145 -3 -14 -7
-38 -9 -54 -2 -16 -11 -70 -20 -120 -9 -50 -18 -102 -20 -116 -15 -94 -47
-279 -50 -300 -3 -14 -9 -50 -15 -80 -5 -30 -12 -73 -16 -95 -3 -22 -12 -78
-20 -125 -8 -47 -17 -98 -19 -115 -3 -16 -7 -41 -10 -55 -2 -13 -7 -40 -10
-60 -3 -20 -8 -47 -10 -60 -3 -14 -25 -144 -49 -290 -25 -146 -47 -280 -50
-297 -3 -18 -8 -48 -11 -65 -3 -18 -8 -40 -10 -48 -2 -8 -6 -35 -9 -60 -3 -25
-8 -56 -11 -70 -3 -14 -10 -54 -15 -90 -12 -73 -17 -104 -24 -140 -3 -14 -8
-41 -10 -60 -3 -19 -8 -48 -12 -65 -3 -16 -9 -52 -13 -78 l-8 -49 821 5 c451
3 857 7 901 10 44 3 130 9 190 12 61 3 133 8 160 10 96 8 190 17 225 20 19 3
64 7 100 10 35 3 77 8 92 10 15 3 47 7 72 10 84 8 142 16 331 47 105 17 199
32 210 33 22 3 165 31 205 40 14 3 57 12 95 20 326 67 674 167 1090 315 330
117 826 358 1140 553 87 54 244 156 260 169 6 4 55 40 110 79 100 72 327 249
356 278 9 9 52 48 97 86 124 107 385 374 513 525 409 483 725 1026 949 1630
51 137 53 144 55 150 0 3 17 55 37 115 20 61 42 130 49 155 7 25 14 50 15 55
2 6 24 87 48 180 87 332 143 642 180 1010 32 312 24 756 -19 1040 -3 17 -7 48
-10 70 -11 74 -46 239 -76 355 -83 318 -216 635 -388 918 -66 110 -190 293
-211 312 -3 3 -27 34 -55 69 -222 288 -567 583 -920 785 -55 31 -107 61 -115
66 -32 19 -169 84 -245 117 -44 19 -93 41 -110 48 -115 52 -484 173 -578 191
-21 3 -35 10 -30 13 4 4 46 18 93 30 177 48 519 165 653 225 396 175 635 310
982 553 320 224 716 596 992 933 467 570 808 1250 1002 2000 17 63 32 126 35
140 3 14 10 43 15 65 6 22 13 56 16 75 3 19 8 42 11 51 2 10 6 30 9 45 2 16 8
49 13 74 6 25 13 72 17 105 3 33 8 67 10 75 2 8 6 42 10 75 7 72 15 139 20
180 2 17 7 77 10 135 4 58 8 128 10 155 13 166 0 652 -20 775 -2 14 -7 50 -10
80 -5 47 -19 136 -40 255 -26 146 -114 444 -180 610 -74 186 -228 474 -333
620 -189 263 -438 520 -681 702 -53 40 -100 77 -106 81 -5 4 -44 31 -85 59
-283 190 -651 376 -985 498 -55 20 -109 40 -120 45 -54 24 -489 150 -575 166
-14 3 -50 11 -80 19 -82 21 -276 59 -465 91 -112 19 -267 40 -355 49 -30 3
-66 8 -80 10 -23 4 -50 7 -195 20 -126 11 -168 14 -285 21 -69 4 -141 9 -160
11 -19 3 -2279 6 -5022 7 -4561 3 -4988 2 -4993 -13z m7505 -4605 c116 -9 144
-13 222 -25 75 -13 253 -57 283 -71 11 -5 45 -19 75 -31 259 -106 427 -315
485 -603 20 -95 26 -343 13 -481 -9 -81 -33 -216 -54 -295 -9 -30 -17 -62 -19
-70 -23 -99 -122 -307 -198 -420 -66 -96 -212 -242 -304 -303 -140 -93 -364
-195 -486 -222 -12 -2 -42 -9 -67 -16 -25 -6 -54 -12 -65 -15 -59 -11 -73 -14
-100 -19 -16 -2 -55 -7 -85 -10 -30 -3 -66 -8 -80 -10 -14 -3 -65 -7 -115 -11
-96 -7 -2463 -9 -2470 -3 -2 2 7 60 20 129 13 69 26 143 29 165 4 22 13 74 21
115 8 41 17 91 20 110 3 19 10 58 15 85 5 28 12 66 16 85 3 19 12 71 20 115 8
44 21 118 30 165 8 47 26 146 39 220 14 74 27 151 30 170 3 19 10 53 15 75 5
22 11 58 14 80 4 22 11 63 16 90 5 28 12 64 15 80 2 17 23 131 45 255 23 124
48 263 56 310 8 47 17 94 19 105 2 11 10 58 19 105 8 47 18 97 20 112 3 15 7
31 9 35 6 10 2379 9 2497 -1z"/>
<path d="M1331 7275 c-5 -5 -13 -41 -19 -80 -7 -38 -14 -81 -17 -95 -3 -14 -7
-43 -10 -65 -3 -22 -7 -47 -10 -55 -5 -15 -62 -337 -70 -395 -3 -16 -11 -65
-20 -110 -8 -44 -24 -132 -35 -195 -11 -63 -22 -126 -25 -140 -2 -13 -7 -40
-10 -60 -3 -20 -7 -45 -9 -57 -3 -11 -7 -36 -10 -54 -3 -19 -8 -44 -10 -57 -3
-13 -14 -76 -26 -140 -11 -64 -22 -129 -25 -144 -3 -16 -7 -39 -9 -53 -13 -70
-27 -148 -31 -172 -3 -16 -10 -55 -15 -88 -5 -33 -12 -71 -15 -85 -39 -215
-100 -561 -121 -685 -3 -16 -14 -77 -24 -135 -11 -58 -22 -121 -25 -140 -3
-19 -10 -57 -15 -85 -9 -49 -13 -71 -25 -149 -4 -21 -9 -48 -11 -60 -2 -11 -7
-34 -9 -51 -3 -16 -12 -66 -20 -110 -8 -44 -17 -97 -21 -119 -3 -21 -8 -48
-10 -60 -5 -24 -7 -36 -28 -161 -9 -49 -18 -101 -21 -115 -5 -23 -22 -119 -29
-165 -2 -11 -11 -63 -20 -115 -10 -52 -19 -108 -22 -125 -3 -16 -7 -37 -9 -45
-2 -8 -7 -31 -9 -50 -4 -29 -42 -244 -61 -350 -3 -14 -12 -65 -20 -115 -23
-131 -24 -138 -30 -165 -8 -38 -24 -130 -31 -174 -3 -21 -8 -48 -10 -60 -4
-21 -18 -102 -29 -166 -13 -70 -25 -138 -54 -305 -17 -93 -33 -188 -37 -210
-3 -22 -7 -44 -9 -50 -6 -27 -25 -131 -30 -170 -3 -16 -7 -41 -10 -55 -3 -14
-10 -52 -15 -85 -5 -33 -12 -71 -15 -85 -7 -34 -23 -127 -30 -170 -3 -19 -12
-71 -20 -115 -8 -44 -24 -134 -35 -200 -26 -151 -29 -164 -35 -195 -3 -14 -10
-52 -15 -85 -5 -33 -12 -70 -14 -83 l-5 -22 4305 0 4304 0 1 23 c0 12 2 29 4
37 2 8 6 33 10 55 3 22 8 51 11 65 8 44 13 74 18 110 3 19 8 49 11 65 14 79
18 101 20 120 2 11 6 34 9 50 14 79 66 385 71 420 3 22 8 51 11 65 10 57 13
69 18 101 6 42 36 215 42 249 2 14 7 41 10 60 2 19 9 58 14 85 5 28 12 66 14
85 3 19 8 46 11 60 2 13 7 42 10 65 3 22 8 47 10 55 2 8 6 33 10 55 5 39 14
91 22 130 2 11 6 36 9 55 2 19 9 58 14 85 5 28 11 66 14 85 3 19 15 89 26 155
26 149 25 146 50 296 12 68 23 135 25 149 3 14 19 106 35 205 17 99 33 191 35
205 2 14 7 42 10 64 4 21 8 48 11 60 4 20 70 413 79 466 6 38 35 211 40 240
13 69 28 158 31 185 2 17 6 39 9 51 2 12 7 39 10 60 3 21 8 45 11 52 2 8 7 37
10 65 3 29 9 68 14 87 5 19 12 60 15 90 l7 55 -1367 0 -1366 0 5 35 c3 19 17
103 31 185 25 146 31 181 40 238 6 33 8 43 40 232 14 83 28 161 30 175 7 35
26 149 31 185 3 17 11 66 19 110 8 44 16 94 19 110 3 17 21 122 40 235 19 113
37 221 40 240 3 19 8 45 10 56 2 12 7 39 11 60 3 22 8 53 11 69 4 24 37 215
68 400 3 17 12 71 21 122 8 51 18 109 21 130 l5 38 -2901 0 c-1923 0 -2904 -3
-2909 -10z"/>
</g>
</svg>
