<svg width="24" height="24" viewBox="0 0 24 24" fill="none" xmlns="http://www.w3.org/2000/svg">
<path d="M5.00024 19H19.0002V5H5.00024V19ZM9.00025 13.14L11.1402 15.72L14.1402 11.85L18.0002 17H6.00024L9.00025 13.14Z" fill="#848FA4"/>
<path d="M3 5V19C3 20.1 3.9 21 5 21H19C20.1 21 21 20.1 21 19V5C21 3.9 20.1 3 19 3H5C3.9 3 3 3.9 3 5ZM19 17.8293C19 18.4758 18.4758 19 17.8293 19H6.17073C5.52415 19 5 18.4758 5 17.8293V6.17073C5 5.52415 5.52415 5 6.17073 5H17.8293C18.4758 5 19 5.52415 19 6.17073V17.8293ZM14.14 11.86L11.14 15.72L9 13.14L6 17H18L14.14 11.86Z" fill="white"/>
<circle cx="8.97984" cy="10.9386" r="0.979592" fill="white"/>
<rect x="16.8" y="16.7998" width="7.2" height="7.2" rx="3.6" fill="white"/>
<path fill-rule="evenodd" clip-rule="evenodd" d="M21.0188 18.206C21.0188 17.9264 20.7922 17.6997 20.5126 17.6997C20.233 17.6997 20.0063 17.9264 20.0063 18.206L20.0063 19.8935H18.6563C18.3767 19.8935 18.15 20.1201 18.15 20.3997C18.15 20.6793 18.3767 20.906 18.6563 20.906H20.0063L20.0063 22.5935C20.0063 22.8731 20.233 23.0997 20.5126 23.0997C20.7922 23.0997 21.0188 22.8731 21.0188 22.5935V20.906H22.3688C22.6484 20.906 22.875 20.6793 22.875 20.3997C22.875 20.1201 22.6484 19.8935 22.3688 19.8935H21.0188V18.206Z" fill="#848FA4"/>
</svg>
