<svg width="24" height="24" viewBox="0 0 24 24" fill="none" xmlns="http://www.w3.org/2000/svg">
<path fill-rule="evenodd" clip-rule="evenodd" d="M13.6511 12.0001L19.8307 5.82041C20.2872 5.3639 20.2872 4.62603 19.8307 4.16953C19.3742 3.71302 18.6364 3.71302 18.1799 4.16953L12.0002 10.3492L5.82052 4.16953C5.36402 3.71302 4.62614 3.71302 4.16965 4.16953C3.71315 4.62603 3.71315 5.3639 4.16965 5.82041L10.3493 12.0001L4.16965 18.1798C3.71315 18.6363 3.71315 19.3742 4.16965 19.8307C4.39731 20.0584 4.6962 20.1728 4.99508 20.1728C5.29397 20.1728 5.59285 20.0584 5.82052 19.8307L12.0002 13.651L18.1799 19.8307C18.4075 20.0584 18.7064 20.1728 19.0053 20.1728C19.3042 20.1728 19.6031 20.0584 19.8307 19.8307C20.2872 19.3742 20.2872 18.6363 19.8307 18.1798L13.6511 12.0001Z" fill="#848FA4"/>
</svg>
