<svg width="24" height="24" viewBox="0 0 24 24" fill="none" xmlns="http://www.w3.org/2000/svg">
<path d="M22.4 20.7998H1.6C0.716344 20.7998 0 21.5162 0 22.3998C0 23.2835 0.716344 23.9998 1.6 23.9998H22.4C23.2837 23.9998 24 23.2835 24 22.3998C24 21.5162 23.2837 20.7998 22.4 20.7998Z" fill="#848FA4"/>
<path fill-rule="evenodd" clip-rule="evenodd" d="M7.57545 10.0494C6.90939 9.38516 5.83106 9.38571 5.16562 10.0494C4.50003 10.7132 4.50021 11.7891 5.16568 12.4528L11.1957 18.4677C11.6398 18.9106 12.36 18.9104 12.8039 18.4677L18.8339 12.4528C19.5 11.7885 19.4994 10.713 18.834 10.0494C18.1684 9.38557 17.0896 9.38574 16.4241 10.0494L13.6882 12.7791L13.6882 1.83184C13.6882 0.894302 12.9253 0.133146 11.9842 0.133146C11.0429 0.133146 10.2803 0.893679 10.2803 1.83184V12.7481L7.57545 10.0494Z" fill="#848FA4"/>
</svg>
