<svg width="24" height="24" viewBox="0 0 24 24" fill="none" xmlns="http://www.w3.org/2000/svg">
<path d="M5 19H19V5H5V19ZM9 13.14L11.14 15.72L14.14 11.85L18 17H6L9 13.14Z" fill="#848FA4"/>
<path d="M3 5V19C3 20.1 3.9 21 5 21H19C20.1 21 21 20.1 21 19V5C21 3.9 20.1 3 19 3H5C3.9 3 3 3.9 3 5ZM19 17.8293C19 18.4758 18.4758 19 17.8293 19H6.17073C5.52415 19 5 18.4758 5 17.8293V6.17073C5 5.52415 5.52415 5 6.17073 5H17.8293C18.4758 5 19 5.52415 19 6.17073V17.8293ZM14.14 11.86L11.14 15.72L9 13.14L6 17H18L14.14 11.86Z" fill="white"/>
<ellipse cx="8.97959" cy="10.9386" rx="0.979592" ry="0.979593" fill="white"/>
</svg>
