<svg width="24" height="24" viewBox="0 0 24 24" fill="none" xmlns="http://www.w3.org/2000/svg">
<path d="M22.5 12C22.5 9.9233 21.8842 7.89323 20.7304 6.16652C19.5767 4.4398 17.9368 3.09399 16.0182 2.29927C14.0996 1.50455 11.9884 1.29661 9.95155 1.70176C7.91475 2.1069 6.04383 3.10693 4.57538 4.57538C3.10693 6.04383 2.1069 7.91475 1.70176 9.95155C1.29661 11.9884 1.50455 14.0996 2.29927 16.0182C3.09399 17.9368 4.4398 19.5767 6.16652 20.7304C7.89323 21.8842 9.9233 22.5 12 22.5C14.7848 22.5 17.4555 21.3938 19.4246 19.4246C21.3938 17.4555 22.5 14.7848 22.5 12ZM12 20.6333C10.2925 20.6333 8.62332 20.127 7.20358 19.1784C5.78384 18.2297 4.67728 16.8814 4.02384 15.3038C3.37041 13.7263 3.19944 11.9904 3.53256 10.3157C3.86568 8.64102 4.68792 7.10271 5.89532 5.89532C7.10271 4.68792 8.64102 3.86568 10.3157 3.53256C11.9904 3.19944 13.7263 3.37041 15.3038 4.02384C16.8814 4.67728 18.2297 5.78384 19.1784 7.20358C20.127 8.62332 20.6333 10.2925 20.6333 12C20.6307 14.2889 19.7203 16.4833 18.1018 18.1018C16.4833 19.7203 14.2889 20.6307 12 20.6333Z" fill="#848FA4"/>
<path d="M11.9999 7.98736C12.1836 7.98736 12.3633 7.93287 12.516 7.83079C12.6688 7.72871 12.7879 7.58363 12.8582 7.41388C12.9285 7.24413 12.9469 7.05734 12.911 6.87714C12.8752 6.69693 12.7867 6.53141 12.6568 6.40149C12.5269 6.27157 12.3613 6.18309 12.1811 6.14725C12.0009 6.1114 11.8141 6.1298 11.6444 6.20011C11.4747 6.27042 11.3296 6.38949 11.2275 6.54226C11.1254 6.69503 11.0709 6.87464 11.0709 7.05837C11.0709 7.18037 11.095 7.30117 11.1416 7.41388C11.1883 7.52659 11.2568 7.629 11.343 7.71527C11.4293 7.80153 11.5317 7.86996 11.6444 7.91665C11.7571 7.96333 11.8779 7.98736 11.9999 7.98736Z" fill="#848FA4"/>
<path d="M13.6434 16.4915C13.3219 16.3885 12.9291 16.0863 12.9291 15.2244V9.56612C12.9291 9.54603 12.9251 9.52613 12.9174 9.50756C12.9097 9.48899 12.8985 9.47212 12.8843 9.45791C12.87 9.4437 12.8532 9.43243 12.8346 9.42473C12.816 9.41704 12.7961 9.41309 12.776 9.41309H10.5207C10.4452 9.41308 10.3705 9.42795 10.3007 9.45684C10.231 9.48574 10.1676 9.52808 10.1142 9.58147C10.0608 9.63485 10.0185 9.69823 9.98957 9.76798C9.96067 9.83773 9.9458 9.91249 9.9458 9.98799C9.94685 10.1115 9.98726 10.2315 10.0612 10.3306C10.1351 10.4296 10.2386 10.5024 10.3568 10.5386C10.6783 10.6416 11.0711 10.9439 11.0711 11.8057V15.2244C11.0711 16.0863 10.6783 16.3885 10.3568 16.4915C10.2386 16.5277 10.1351 16.6006 10.0612 16.6996C9.98726 16.7986 9.94685 16.9186 9.9458 17.0421C9.9458 17.1176 9.96067 17.1924 9.98957 17.2621C10.0185 17.3319 10.0608 17.3953 10.1142 17.4487C10.1676 17.502 10.231 17.5444 10.3007 17.5733C10.3705 17.6022 10.4452 17.617 10.5207 17.617H13.4795C13.555 17.617 13.6298 17.6022 13.6995 17.5733C13.7693 17.5444 13.8326 17.502 13.886 17.4487C13.9394 17.3953 13.9818 17.3319 14.0107 17.2621C14.0395 17.1924 14.0544 17.1176 14.0544 17.0421C14.0534 16.9186 14.013 16.7986 13.939 16.6996C13.8651 16.6006 13.7616 16.5277 13.6434 16.4915Z" fill="#848FA4"/>
</svg>
