<svg width="24" height="24" viewBox="0 0 24 24" fill="none" xmlns="http://www.w3.org/2000/svg">
<path d="M12 3C8.70701 3 6 5.56788 6 9.23077C6 10.5379 6.3079 11.4472 6.87981 12.4543L11.5962 20.762C11.6361 20.8342 11.6946 20.8943 11.7656 20.9361C11.8366 20.978 11.9176 21.0001 12 21.0001C12.0824 21.0001 12.1634 20.978 12.2344 20.9361C12.3054 20.8943 12.3639 20.8342 12.4038 20.762L17.1202 12.4543C17.6921 11.4472 18 10.5379 18 9.23077C18 5.56788 15.293 3 12 3ZM12 6.23077C13.5294 6.23077 14.7692 7.4706 14.7692 9C14.7692 10.5294 13.5294 11.7692 12 11.7692C10.4706 11.7692 9.23077 10.5294 9.23077 9C9.23077 7.4706 10.4706 6.23077 12 6.23077Z" fill="#848FA4"/>
</svg>
