<svg width="24" height="24" viewBox="0 0 24 24" fill="none" xmlns="http://www.w3.org/2000/svg">
<path d="M17.3798 5.64697H16.454V6.36546C16.454 7.06504 15.8754 7.63227 15.1617 7.63227H9.83828C9.12463 7.63227 8.54599 7.06504 8.54599 6.36546V5.64697H7.62018C6.73294 5.64697 6 6.34655 6 7.23521V19.4117C6 20.2814 6.71365 20.9999 7.62018 20.9999H17.3798C18.2671 20.9999 19 20.2814 19 19.4117V7.23521C18.9807 6.34655 18.2671 5.64697 17.3798 5.64697Z" fill="#848FA4"/>
<path d="M9.83815 6.83824H15.1423C15.4123 6.83824 15.6245 6.63025 15.6245 6.36555V5.04202C15.6245 4.77731 15.4123 4.55042 15.1423 4.55042H14.2358C14.1393 3.68067 13.3871 3 12.4806 3C11.5741 3 10.8218 3.68067 10.7254 4.55042H9.81887C9.54884 4.55042 9.33667 4.77731 9.33667 5.04202V6.36555C9.35596 6.63025 9.56812 6.83824 9.83815 6.83824ZM11.7284 4.56933C11.8055 4.22899 12.1141 3.96429 12.4999 3.96429C12.8856 3.96429 13.1942 4.21008 13.2714 4.56933C13.2907 4.62605 13.2907 4.68277 13.2907 4.7395C13.2907 5.17437 12.9435 5.51471 12.4999 5.51471C12.0563 5.51471 11.7091 5.17437 11.7091 4.7395C11.7091 4.68277 11.7091 4.62605 11.7284 4.56933Z" fill="#848FA4"/>
</svg>
