<svg width="24" height="24" viewBox="0 0 24 24" fill="none" xmlns="http://www.w3.org/2000/svg">
<path fill-rule="evenodd" clip-rule="evenodd" d="M11 3C6.58172 3 3 6.58172 3 11C3 15.4183 6.58172 19 11 19C15.4183 19 19 15.4183 19 11C19 6.58172 15.4183 3 11 3ZM1 11C1 5.47715 5.47715 1 11 1C16.5228 1 21 5.47715 21 11C21 16.5228 16.5228 21 11 21C5.47715 21 1 16.5228 1 11Z" fill="#848FA4"/>
<path fill-rule="evenodd" clip-rule="evenodd" d="M0.699951 11.0002C0.699951 5.31166 5.31142 0.700195 11 0.700195C16.6885 0.700195 21.2999 5.31166 21.2999 11.0002C21.2999 16.6887 16.6885 21.3002 11 21.3002C5.31142 21.3002 0.699951 16.6887 0.699951 11.0002ZM11 1.3002C5.64279 1.3002 1.29995 5.64303 1.29995 11.0002C1.29995 16.3574 5.64279 20.7002 11 20.7002C16.3571 20.7002 20.6999 16.3574 20.6999 11.0002C20.6999 5.64303 16.3571 1.3002 11 1.3002ZM11 3.3002C6.74736 3.3002 3.29995 6.7476 3.29995 11.0002C3.29995 15.2528 6.74736 18.7002 11 18.7002C15.2525 18.7002 18.6999 15.2528 18.6999 11.0002C18.6999 6.7476 15.2525 3.3002 11 3.3002ZM2.69995 11.0002C2.69995 6.41623 6.41599 2.7002 11 2.7002C15.5839 2.7002 19.2999 6.41623 19.2999 11.0002C19.2999 15.5842 15.5839 19.3002 11 19.3002C6.41599 19.3002 2.69995 15.5842 2.69995 11.0002Z" fill="#848FA4"/>
<path fill-rule="evenodd" clip-rule="evenodd" d="M17.2929 17.2929C17.6834 16.9024 18.3166 16.9024 18.7071 17.2929L22.7071 21.2929C23.0976 21.6834 23.0976 22.3166 22.7071 22.7071C22.3166 23.0976 21.6834 23.0976 21.2929 22.7071L17.2929 18.7071C16.9024 18.3166 16.9024 17.6834 17.2929 17.2929Z" fill="#848FA4"/>
<path fill-rule="evenodd" clip-rule="evenodd" d="M17.0807 17.081C17.5884 16.5733 18.4115 16.5733 18.9192 17.081L22.9192 21.081C23.4269 21.5886 23.4269 22.4118 22.9192 22.9194C22.4115 23.4271 21.5884 23.4271 21.0807 22.9194L17.0807 18.9194C16.573 18.4118 16.573 17.5886 17.0807 17.081ZM18.4949 17.5052C18.2216 17.2319 17.7783 17.2319 17.505 17.5052C17.2316 17.7786 17.2316 18.2218 17.505 18.4952L21.505 22.4952C21.7783 22.7685 22.2216 22.7685 22.4949 22.4952C22.7683 22.2218 22.7683 21.7786 22.4949 21.5052L18.4949 17.5052Z" fill="#848FA4"/>
</svg>
