<svg width="24" height="24" viewBox="0 0 24 24" fill="none" xmlns="http://www.w3.org/2000/svg">
<path d="M12 20C10.4178 20 8.87103 19.5308 7.55544 18.6518C6.23985 17.7727 5.21447 16.5233 4.60897 15.0615C4.00347 13.5997 3.84504 11.9911 4.15372 10.4393C4.4624 8.88743 5.22433 7.46197 6.34315 6.34315C7.46197 5.22433 8.88743 4.4624 10.4393 4.15372C11.9911 3.84504 13.5997 4.00347 15.0615 4.60897C16.5233 5.21447 17.7727 6.23985 18.6518 7.55544C19.5308 8.87103 20 10.4178 20 12C19.9976 14.121 19.154 16.1544 17.6542 17.6542C16.1544 19.154 14.121 19.9976 12 20ZM12 5.14286C10.6438 5.14286 9.31803 5.54502 8.19038 6.2985C7.06273 7.05197 6.18383 8.12291 5.66483 9.37589C5.14583 10.6289 5.01003 12.0076 5.27462 13.3378C5.5392 14.6679 6.19228 15.8897 7.15127 16.8487C8.11026 17.8077 9.33209 18.4608 10.6622 18.7254C11.9924 18.99 13.3711 18.8542 14.6241 18.3352C15.8771 17.8162 16.948 16.9373 17.7015 15.8096C18.455 14.682 18.8571 13.3562 18.8571 12C18.8552 10.182 18.1321 8.43899 16.8465 7.15346C15.561 5.86793 13.818 5.14484 12 5.14286Z" fill="#848FA4"/>
<path fill-rule="evenodd" clip-rule="evenodd" d="M20.2001 11.9998V12C20.1976 14.174 19.3329 16.2582 17.7957 17.7954C16.2585 19.3327 14.1742 20.1974 12.0003 20.1998L12.0001 20V20.1998C10.3782 20.1998 8.79286 19.7189 7.44438 18.8179C6.09589 17.9168 5.04488 16.6362 4.42424 15.1378C3.8036 13.6395 3.64121 11.9907 3.95761 10.4001C4.27401 8.80942 5.05499 7.34832 6.20178 6.20153C7.34857 5.05474 8.80967 4.27377 10.4003 3.95737C11.991 3.64097 13.6397 3.80336 15.1381 4.424C16.6364 5.04463 17.9171 6.09565 18.8181 7.44413C19.7191 8.79261 20.2001 10.378 20.2001 11.9998ZM12.0001 19.9998C10.4178 19.9998 8.87108 19.5306 7.55549 18.6516C6.2399 17.7725 5.21452 16.5231 4.60902 15.0613C4.00352 13.5995 3.84509 11.9909 4.15377 10.4391C4.46245 8.88724 5.22438 7.46177 6.3432 6.34295C7.46202 5.22413 8.88748 4.46221 10.4393 4.15353C11.9912 3.84484 13.5997 4.00327 15.0615 4.60877C16.5233 5.21427 17.7728 6.23965 18.6518 7.55525C19.5309 8.87084 20 10.4176 20 11.9998C19.9977 14.1208 19.154 16.1542 17.6543 17.654C16.1545 19.1538 14.121 19.9974 12.0001 19.9998ZM11.9999 5.34267C10.6833 5.34269 9.39627 5.73312 8.30154 6.4646C7.20678 7.19609 6.35352 8.2358 5.84965 9.45223C5.34579 10.6687 5.21396 12.0072 5.47082 13.2986C5.72769 14.5899 6.36172 15.7761 7.29274 16.7071C8.22376 17.6381 9.40995 18.2722 10.7013 18.529C11.9927 18.7859 13.3312 18.6541 14.5476 18.1502C15.7641 17.6463 16.8038 16.7931 17.5353 15.6983C18.2667 14.6036 18.6571 13.3166 18.6572 12C18.6553 10.235 17.9533 8.54277 16.7052 7.29469C15.4571 6.04663 13.765 5.34462 11.9999 5.34267ZM12.0001 5.14267C13.8181 5.14465 15.5611 5.86773 16.8466 7.15326C18.1321 8.4388 18.8552 10.1818 18.8572 11.9998C18.8572 13.356 18.455 14.6818 17.7016 15.8094C16.9481 16.9371 15.8771 17.816 14.6242 18.335C13.3712 18.854 11.9924 18.9898 10.6623 18.7252C9.33213 18.4606 8.11031 17.8075 7.15132 16.8485C6.19233 15.8895 5.53925 14.6677 5.27467 13.3376C5.01008 12.0074 5.14588 10.6287 5.66488 9.37569C6.18388 8.12271 7.06278 7.05177 8.19043 6.2983C9.31808 5.54483 10.6438 5.14267 12.0001 5.14267Z" fill="#848FA4"/>
<path d="M14.8099 16.3811C14.7348 16.3812 14.6605 16.3664 14.5911 16.3377C14.5218 16.3089 14.4588 16.2668 14.4059 16.2136L11.5961 13.4039C11.5431 13.3509 11.5009 13.2879 11.4722 13.2186C11.4435 13.1493 11.4287 13.075 11.4287 12.9999V7.85707C11.4287 7.70552 11.4889 7.56018 11.5961 7.45301C11.7032 7.34585 11.8486 7.28564 12.0001 7.28564C12.1517 7.28564 12.297 7.34585 12.4042 7.45301C12.5114 7.56018 12.5716 7.70552 12.5716 7.85707V12.7633L15.2139 15.4056C15.2937 15.4856 15.3481 15.5874 15.3702 15.6982C15.3922 15.809 15.3809 15.9239 15.3377 16.0283C15.2944 16.1327 15.2212 16.2219 15.1273 16.2847C15.0333 16.3475 14.9229 16.381 14.8099 16.3811Z" fill="#848FA4"/>
<path fill-rule="evenodd" clip-rule="evenodd" d="M14.8099 16.3809C14.7349 16.381 14.6605 16.3662 14.5912 16.3375C14.5219 16.3088 14.4589 16.2666 14.4059 16.2134L11.5962 13.4037C11.5431 13.3507 11.501 13.2877 11.4723 13.2184C11.4435 13.1491 11.4288 13.0748 11.4288 12.9997V7.85688C11.4288 7.70533 11.489 7.55998 11.5961 7.45282C11.7033 7.34565 11.8486 7.28545 12.0002 7.28545C12.1517 7.28545 12.2971 7.34565 12.4042 7.45282C12.5114 7.55998 12.5716 7.70533 12.5716 7.85688V12.7631L15.2139 15.4054C15.2938 15.4854 15.3482 15.5872 15.3702 15.698C15.3923 15.8088 15.381 15.9237 15.3377 16.0281C15.2945 16.1325 15.2213 16.2217 15.1273 16.2845C15.0334 16.3473 14.9229 16.3809 14.8099 16.3809ZM12.7716 12.6803L15.3553 15.264C15.4632 15.3719 15.5366 15.5094 15.5664 15.659C15.5961 15.8086 15.5809 15.9637 15.5225 16.1046C15.4641 16.2456 15.3653 16.366 15.2384 16.4508C15.1116 16.5356 14.9625 16.5808 14.8099 16.5809C14.7086 16.581 14.6082 16.561 14.5146 16.5222C14.421 16.4835 11.5264 13.617 11.4549 13.5453M12.7716 12.6803V7.85688C12.7716 7.65228 12.6903 7.45607 12.5457 7.3114C12.401 7.16672 12.2048 7.08545 12.0002 7.08545C11.7956 7.08545 11.5994 7.16672 11.4547 7.3114C11.31 7.45607 11.2288 7.65228 11.2288 7.85688V12.9997C11.2288 13.101 11.2487 13.2014 11.2875 13.295C11.3263 13.3886 11.3832 13.4737 11.4549 13.5453" fill="#848FA4"/>
</svg>
