<svg width="32" height="32" viewBox="0 0 32 32" fill="none" xmlns="http://www.w3.org/2000/svg">
<circle cx="16" cy="16" r="16" fill="#BEC5DA"/>
<path d="M21.3798 9.64697H20.454V10.3655C20.454 11.065 19.8754 11.6323 19.1617 11.6323H13.8383C13.1246 11.6323 12.546 11.065 12.546 10.3655V9.64697H11.6202C10.7329 9.64697 10 10.3466 10 11.2352V23.4117C10 24.2814 10.7137 24.9999 11.6202 24.9999H21.3798C22.2671 24.9999 23 24.2814 23 23.4117V11.2352C22.9807 10.3466 22.2671 9.64697 21.3798 9.64697Z" fill="#283047"/>
<path d="M13.8382 10.8382H19.1423C19.4123 10.8382 19.6245 10.6303 19.6245 10.3655V9.04202C19.6245 8.77731 19.4123 8.55042 19.1423 8.55042H18.2358C18.1393 7.68067 17.3871 7 16.4806 7C15.5741 7 14.8218 7.68067 14.7254 8.55042H13.8189C13.5488 8.55042 13.3367 8.77731 13.3367 9.04202V10.3655C13.356 10.6303 13.5681 10.8382 13.8382 10.8382ZM15.7284 8.56933C15.8055 8.22899 16.1141 7.96429 16.4999 7.96429C16.8856 7.96429 17.1942 8.21008 17.2714 8.56933C17.2907 8.62605 17.2907 8.68277 17.2907 8.7395C17.2907 9.17437 16.9435 9.51471 16.4999 9.51471C16.0563 9.51471 15.7091 9.17437 15.7091 8.7395C15.7091 8.68277 15.7091 8.62605 15.7284 8.56933Z" fill="#283047"/>
</svg>
